<svg width="742" height="669" viewBox="0 0 742 669" fill="none" xmlns="http://www.w3.org/2000/svg">
<path d="M667.8 594.667V148.667H74.2V594.667H667.8ZM667.8 0C687.479 0 706.352 7.83152 720.267 21.7717C734.182 35.7119 742 54.6189 742 74.3333V594.667C742 614.381 734.182 633.288 720.267 647.228C706.352 661.168 687.479 669 667.8 669H74.2C54.5209 669 35.6479 661.168 21.7327 647.228C7.81747 633.288 0 614.381 0 594.667V74.3333C0 54.6189 7.81747 35.7119 21.7327 21.7717C35.6479 7.83152 54.5209 0 74.2 0H667.8ZM408.1 520.333V446H593.6V520.333H408.1ZM281.218 371.667L132.447 223H237.44L359.87 345.65C374.339 360.145 374.339 383.932 359.87 398.427L238.182 520.333H133.189L281.218 371.667Z" fill="#622FAA"/>
</svg>
