<svg width="32" height="32" viewBox="0 0 32 32" fill="none" xmlns="http://www.w3.org/2000/svg">
<path d="M3.77275 10.41H5.52275V18.5107C4.62525 18.6812 3.966 18.7495 3.25025 18.7495C1.11375 18.7495 0 17.7835 0 15.931C0 14.147 1.182 12.988 3.0115 12.988C3.2955 12.988 3.5115 13.0105 3.77275 13.0787V10.41ZM3.77275 14.4875C3.56825 14.4195 3.39775 14.3967 3.182 14.3967C2.2955 14.3967 1.78425 14.9422 1.78425 15.8967C1.78425 16.8285 2.27275 17.34 3.1705 17.34C3.36375 17.34 3.523 17.3285 3.773 17.2945L3.77275 14.4875Z" fill="#F0513F"/>
<path d="M8.3067 13.1125V17.1695C8.3067 18.567 8.20445 19.2375 7.8977 19.817C7.61345 20.3743 7.23845 20.7263 6.4657 21.1128L4.8407 20.34C5.61345 19.9763 5.9882 19.6583 6.22695 19.1695C6.47695 18.6695 6.55695 18.09 6.55695 16.567V13.1125H8.3067ZM6.5567 10.4193H8.3067V12.2148H6.5567V10.4193ZM9.36395 13.5103C10.1364 13.1468 10.8752 12.9878 11.6822 12.9878C12.5797 12.9878 13.1707 13.2263 13.4322 13.6923C13.5797 13.9535 13.6252 14.2945 13.6252 15.0218V18.5785C12.8412 18.6923 11.8527 18.7718 11.1252 18.7718C9.65945 18.7718 9.0002 18.2603 9.0002 17.124C9.0002 15.8965 9.8752 15.3285 12.0229 15.1465V14.7603C12.0229 14.442 11.8639 14.3285 11.4207 14.3285C10.7732 14.3285 10.0457 14.5103 9.3637 14.8628L9.36395 13.5103ZM12.1024 16.2945C10.9434 16.408 10.5684 16.59 10.5684 17.0445C10.5684 17.3853 10.7844 17.5445 11.2617 17.5445C11.5229 17.5445 11.7617 17.522 12.1024 17.465V16.2945ZM14.4779 13.3853C15.5119 13.1128 16.3642 12.9878 17.2279 12.9878C18.1257 12.9878 18.7734 13.192 19.1599 13.59C19.5237 13.965 19.6372 14.3738 19.6372 15.249V18.6808H17.8872V15.3175C17.8872 14.647 17.6597 14.397 17.0347 14.397C16.7962 14.397 16.5804 14.4195 16.2279 14.522V18.681H14.4779V13.3853ZM20.3172 19.6353C20.9309 19.9535 21.5444 20.1013 22.1922 20.1013C23.3397 20.1013 23.8284 19.6353 23.8284 18.5215V18.4875C23.4877 18.658 23.1467 18.7263 22.6922 18.7263C21.1579 18.7263 20.1807 17.7148 20.1807 16.1125C20.1807 14.1238 21.6239 12.9988 24.1807 12.9988C24.9307 12.9988 25.6239 13.0783 26.4649 13.2488L25.8657 14.5113C25.3997 14.4203 25.8282 14.4988 25.4762 14.4648V14.6468L25.4987 15.3853L25.5102 16.3398C25.5217 16.5785 25.5217 16.8173 25.5329 17.0558V17.5333C25.5329 19.0333 25.4079 19.7375 25.0329 20.317C24.4874 21.1695 23.5444 21.59 22.2034 21.59C21.5214 21.59 20.9309 21.4875 20.3169 21.249V19.635L20.3172 19.6353ZM23.7947 14.4078H23.6127C23.2719 14.3965 22.8742 14.4873 22.6012 14.6578C22.1809 14.8965 21.9649 15.3283 21.9649 15.942C21.9649 16.817 22.3967 17.317 23.1694 17.317C23.4082 17.317 23.6014 17.2715 23.8284 17.2035V16.601C23.8284 16.3968 23.8172 16.1693 23.8172 15.9308L23.8059 15.124L23.7944 14.5443V14.408L23.7947 14.4078ZM29.1817 12.965C30.9317 12.965 31.9999 14.0673 31.9999 15.8513C31.9999 17.681 30.8864 18.8288 29.1134 18.8288C27.3634 18.8288 26.2839 17.7263 26.2839 15.9538C26.2839 14.1125 27.3977 12.965 29.1817 12.965ZM29.1474 17.4195C29.8179 17.4195 30.2159 16.8625 30.2159 15.8968C30.2159 14.9423 29.8294 14.374 29.1592 14.374C28.4657 14.374 28.0679 14.931 28.0679 15.8965C28.0679 16.8628 28.4657 17.4195 29.1474 17.4195Z" fill="#F0513F"/>
</svg>
