<svg width="32" height="32" viewBox="0 0 32 32" fill="none" xmlns="http://www.w3.org/2000/svg">
<g clip-path="url(#clip0_14_94)">
<path d="M30.5 18.075H29.175V17.4H31.8V15.925H29.3C28.65 15.925 27.775 16.45 27.775 17.45V17.95C27.775 18.95 28.625 19.45 29.3 19.45H30.55V20.15L27.85 20.175V21.65H30.5C31.05 21.65 31.975 21.25 32 20.15V19.575C32 18.625 31.225 18.075 30.5 18.075ZM15.1 17.85C15.1 16.025 13.375 15.85 13.375 15.85H10.3V21.625H11.85V20.25L13.2 21.65H15.5L13.675 19.8C13.675 19.8 15.1 19.675 15.1 17.85ZM13.075 18.625H11.825V17.3H13.075C13.075 17.3 13.425 17.425 13.425 17.95C13.425 18.5 13.075 18.625 13.075 18.625ZM18.925 15.9H17.35C16.225 15.9 15.85 16.925 15.85 17.4V21.625H17.425V20.625H18.9V21.625H20.425V17.4C20.425 16.175 19.325 15.9 18.925 15.9ZM18.9 18.975H17.4V17.575C17.4 17.575 17.4 17.25 17.9 17.25H18.45C18.875 17.25 18.9 17.575 18.9 17.575V18.975ZM21.15 15.9H22.8V21.625H21.15V15.9ZM25.1 15.9H23.475V21.625H27.3V20.15H25.1V15.9Z" fill="#EA2D2E"/>
<path d="M18.05 15.175C18.2 15.05 18.3251 14.95 18.3251 14.95C18.3251 14.95 14.125 10.75 9.42505 11.225C7.07505 11.425 4.17505 13.575 2.47505 16.4C0.775049 19.225 0.550049 21.625 0.550049 21.625H6.95005C6.95005 21.625 5.72505 16.05 9.77505 13.8C10.65 13.375 13.475 11.775 18.05 15.175ZM13.875 11.125C13.8 11.075 13.6 10.975 13.1 10.85L13.075 11.375C13.35 11.475 13.6 11.575 13.85 11.675L13.875 11.125Z" fill="#EA2D2E"/>
<path d="M13.875 13.975L13.9 13.475C13.625 13.425 13.35 13.4 13.1 13.375L13.075 13.875C13.35 13.875 13.6 13.925 13.875 13.975ZM10.1 10.875H10.175L10.025 10.375C9.77497 10.375 9.52497 10.4 9.24998 10.425L9.39997 10.9C9.62498 10.875 9.84998 10.875 10.1 10.875ZM10.65 14.4C10.875 14.275 11.125 14.2 11.35 14.125L11.175 13.6C10.925 13.65 10.675 13.75 10.475 13.85L10.65 14.4ZM6.79998 11.725L6.42498 11.175C6.24998 11.25 6.02498 11.375 5.82498 11.5L6.19998 12.075C6.39998 11.95 6.59998 11.825 6.79998 11.725ZM8.47498 15.35L8.87498 15.925C9.02497 15.725 9.17498 15.525 9.34998 15.35L8.97498 14.8C8.77498 14.975 8.62498 15.175 8.47498 15.35ZM7.54998 17.075C7.42498 17.375 7.34998 17.675 7.29998 17.95L7.94998 18.475C7.97498 18.15 8.04998 17.85 8.12498 17.525L7.54998 17.075ZM3.74998 14.125L3.17498 13.625C2.97498 13.825 2.74998 14.025 2.57498 14.225L3.19998 14.75C3.37498 14.525 3.54998 14.325 3.74998 14.125ZM1.29998 17.725L0.374976 17.375C0.224976 17.725 0.0499756 18.125 -0.0250244 18.35L0.899976 18.7C0.999976 18.425 1.17498 18.025 1.29998 17.725ZM7.17498 20C7.19998 20.425 7.22498 20.775 7.27498 21.025L8.24998 21.375C8.17498 21.05 8.09998 20.7 8.04998 20.325L7.17498 20Z" fill="#EA2D2E"/>
</g>
<defs>
<clipPath id="clip0_14_94">
<rect width="32" height="32" fill="white"/>
</clipPath>
</defs>
</svg>
