<svg width="32" height="32" viewBox="0 0 32 32" fill="none" xmlns="http://www.w3.org/2000/svg">
<g clip-path="url(#clip0_14_98)">
<path d="M15.74 0.0604705C15.682 0.0942205 15.4392 0.442471 15.2 0.834721C14.6 1.81972 14.5935 1.82022 13.7875 0.971971C13.263 0.420221 13.1362 0.319221 12.9675 0.320471C12.8575 0.320971 12.7187 0.358471 12.6587 0.403471C12.599 0.448471 12.4297 0.806471 12.2827 1.19922C11.9462 2.09922 11.9302 2.12797 11.7437 2.16397C11.6287 2.18572 11.408 2.06247 10.878 1.68197C10.4867 1.40072 10.103 1.17072 10.0252 1.17072C9.70246 1.17072 9.61146 1.34722 9.45771 2.27072C9.26271 3.44497 9.26921 3.44097 8.21071 2.96022C7.78321 2.76622 7.37821 2.60747 7.30996 2.60747C7.24146 2.60747 7.11196 2.68097 7.02246 2.77072C6.85946 2.93372 6.85921 2.93447 6.90371 3.83222L6.94821 4.73097L6.77821 4.82197C6.62771 4.90247 6.52396 4.89272 5.85721 4.73497C4.98721 4.52947 4.80321 4.53497 4.62721 4.77247L4.49821 4.94572L4.67121 5.68672C4.76621 6.09422 4.85746 6.48672 4.87471 6.55847C4.89146 6.63022 4.86221 6.74497 4.80971 6.81347C4.72271 6.92547 4.63046 6.93572 3.82496 6.92347C2.46171 6.90197 2.38446 7.01897 2.94746 8.24847C3.12671 8.63847 3.27346 8.99322 3.27346 9.03572C3.27346 9.26047 3.09421 9.34197 2.32496 9.46772C1.89446 9.53772 1.52046 9.59522 1.49346 9.59522C1.46671 9.59522 1.38596 9.65397 1.31421 9.72572C1.07996 9.95972 1.14646 10.1797 1.67746 10.9292C2.33896 11.863 2.33796 11.8665 1.24496 12.2845C0.00221217 12.76 -0.0230378 12.877 0.923212 13.7745C1.80446 14.6105 1.80571 14.5982 0.807962 15.2255C0.0519623 15.7 0.0404622 15.7115 0.0212122 15.969C-0.00203776 16.2822 0.0034622 16.2877 0.905712 16.839C1.79821 17.384 1.79821 17.4005 0.922462 18.229C-0.0195377 19.12 0.00946224 19.25 1.25321 19.7192C2.33996 20.1292 2.34146 20.1342 1.67871 21.0677C1.30321 21.597 1.18346 21.8175 1.18346 21.981C1.18346 22.2867 1.34271 22.3647 2.29371 22.5245C3.09496 22.6595 3.27346 22.7387 3.27346 22.9597C3.27346 23.0052 3.12646 23.3627 2.94671 23.754C2.38771 24.9715 2.45146 25.0727 3.77446 25.0727C5.00671 25.0727 4.97396 25.0352 4.70846 26.1462C4.50846 26.9837 4.50521 27.1442 4.68646 27.325C4.82496 27.464 5.08646 27.4485 5.90396 27.2527C6.52871 27.1037 6.63821 27.0935 6.78296 27.1707L6.94821 27.2592L6.90371 28.1577C6.85921 29.056 6.85946 29.0565 7.02246 29.2197C7.11196 29.3095 7.24346 29.3827 7.31371 29.3827C7.38421 29.3827 7.78946 29.225 8.21471 29.0317C9.26971 28.5527 9.26321 28.5487 9.45796 29.7192C9.61221 30.647 9.70221 30.8192 10.0315 30.8192C10.1132 30.8192 10.489 30.5992 10.8665 30.3297C11.53 29.8565 11.702 29.7822 11.8787 29.8947C11.9242 29.9235 12.1012 30.3122 12.2717 30.7585C12.5225 31.4147 12.6142 31.5857 12.754 31.6525C13.0195 31.7797 13.184 31.6775 13.8085 30.9975C14.5625 30.176 14.5935 30.18 15.209 31.1775C15.889 32.279 16.065 32.2765 16.762 31.1552C17.3625 30.1892 17.3555 30.1897 18.1672 31.0377C18.7065 31.6002 18.8212 31.6902 19.003 31.6902C19.119 31.6902 19.2577 31.6465 19.3105 31.5932C19.364 31.54 19.5405 31.1467 19.7025 30.7192C19.8647 30.2917 20.0327 29.9192 20.0762 29.8917C20.248 29.7827 20.4257 29.8592 21.0882 30.3297C21.4782 30.6067 21.8452 30.8195 21.9325 30.8195C22.2565 30.8195 22.3735 30.5895 22.508 29.686C22.623 28.9155 22.6465 28.8415 22.798 28.7647C22.947 28.6892 23.0365 28.7147 23.7355 29.0322C24.1607 29.2247 24.5662 29.3827 24.6365 29.3827C24.707 29.3827 24.8405 29.3072 24.9325 29.2147L25.1005 29.0472L25.0545 28.1852C25.0102 27.3625 25.0145 27.3182 25.1455 27.1995C25.2805 27.0775 25.2945 27.078 26.0492 27.2505C26.9632 27.4592 27.1337 27.4647 27.3055 27.293C27.4732 27.1252 27.4715 27.0885 27.242 26.1202C26.9845 25.034 26.95 25.0727 28.187 25.0727C29.0305 25.0727 29.1245 25.0607 29.232 24.9422C29.4115 24.744 29.3687 24.5167 29.008 23.7475C28.8257 23.36 28.678 23.0075 28.6792 22.9637C28.6852 22.7352 28.865 22.657 29.6955 22.522C30.2037 22.4397 30.5837 22.3442 30.6527 22.282C30.8835 22.0737 30.7987 21.8025 30.272 21.0637C29.6115 20.138 29.6145 20.1292 30.6717 19.7395C31.9377 19.273 31.974 19.1175 31.0265 18.217C30.149 17.3832 30.1485 17.3877 31.1097 16.7977C32.2717 16.0845 32.2735 15.9237 31.1302 15.214C30.147 14.604 30.1477 14.6125 31.029 13.7757C31.974 12.8775 31.9485 12.76 30.7052 12.2845C29.6082 11.8647 29.6047 11.8545 30.2715 10.9395C30.6685 10.3945 30.767 10.2137 30.767 10.027C30.767 9.70047 30.6205 9.62747 29.658 9.47197C28.854 9.34197 28.677 9.26322 28.677 9.03447C28.677 8.99097 28.824 8.64097 29.0037 8.25622C29.3552 7.50297 29.4047 7.20122 29.2057 7.02122C29.0987 6.92447 28.9557 6.91047 28.189 6.92322C27.387 6.93672 27.2845 6.92522 27.1732 6.81347C27.0517 6.69147 27.0532 6.67422 27.2427 5.88222C27.4755 4.91197 27.4765 4.88847 27.2852 4.70872C27.091 4.52622 26.9697 4.52922 26.0787 4.73897C25.4295 4.89197 25.322 4.90222 25.1745 4.82322L25.007 4.73322L25.0532 3.83772L25.0997 2.94247L24.9322 2.77497C24.84 2.68272 24.7095 2.60747 24.6415 2.60747C24.574 2.60747 24.1705 2.76747 23.7457 2.96297C23.0362 3.28947 22.96 3.31122 22.8065 3.23097C22.6535 3.15097 22.628 3.07172 22.4972 2.27372C22.3465 1.35047 22.253 1.17072 21.9252 1.17072C21.8475 1.17072 21.462 1.40197 21.0687 1.68447C20.4227 2.14847 20.3362 2.19247 20.1752 2.13622C20.042 2.08972 19.9645 1.98872 19.87 1.73647C19.8 1.55097 19.6657 1.19347 19.5715 0.942221C19.381 0.435221 19.2747 0.321721 18.9895 0.321721C18.8302 0.321721 18.6862 0.436221 18.1695 0.972721C17.3572 1.81647 17.3542 1.81622 16.757 0.836471C16.5182 0.444971 16.2687 0.0954705 16.2025 0.0599705C16.0532 -0.0202795 15.8775 -0.0200295 15.74 0.0604705ZM16.48 3.00997C17.1875 3.51347 16.8115 4.69747 15.944 4.69747C15.102 4.69747 14.678 3.68322 15.2792 3.10747C15.6185 2.78247 16.1047 2.74272 16.48 3.00997ZM15.5907 6.13672C16.0545 6.31297 16.2447 6.20722 17.3037 5.18672L18.0992 4.41922L18.436 4.46422C19.4922 4.60422 21.5927 5.52672 22.7997 6.38072C23.9087 7.16572 25.3827 8.76422 26.011 9.86322L26.1452 10.0987L25.5502 11.4397C25.2227 12.1772 24.9547 12.858 24.9547 12.953C24.9547 13.1725 25.0987 13.5197 25.2372 13.6345C25.2957 13.6832 25.8515 13.9507 26.472 14.229L27.5995 14.7352L27.644 15.0222C27.7015 15.396 27.709 16.314 27.657 16.5747L27.6162 16.7787H26.9725C26.2257 16.7787 26.2835 16.712 26.243 17.6277C26.2135 18.2917 26.053 18.6587 25.6882 18.8965C25.0937 19.2842 24.112 19.214 23.6957 18.7537C23.6317 18.683 23.5075 18.3277 23.4192 17.9637C23.1617 16.9005 22.816 16.3037 22.121 15.7227C21.9015 15.5395 21.7222 15.3682 21.7222 15.3422C21.7222 15.3167 21.9635 15.1135 22.2585 14.8915C23.333 14.0815 23.951 13.1385 24.0185 12.2047C24.1482 10.4232 22.729 8.76297 20.618 8.22472C20.1175 8.09722 19.9037 8.09322 13.712 8.09322C10.1977 8.09322 7.32221 8.07022 7.32221 8.04222C7.32221 7.97647 8.10321 7.21847 8.56321 6.83822C9.82671 5.79372 11.4677 4.97197 13.1675 4.53297L13.755 4.38072L14.5902 5.22747C15.0497 5.69322 15.5002 6.10222 15.5907 6.13672ZM5.07496 11.5847C5.45971 11.8367 5.61746 12.4697 5.38996 12.8502C5.03871 13.4392 4.14846 13.464 3.79671 12.8947C3.28521 12.0675 4.27046 11.0575 5.07496 11.5847ZM27.743 11.617C28.7495 12.2307 27.9695 13.7405 26.892 13.2637C26.1727 12.9455 26.1495 11.9622 26.8532 11.6035C27.1467 11.4535 27.4837 11.459 27.743 11.617ZM8.04071 15.3747V19.1297H4.72071L4.58921 18.5585C4.33021 17.4335 4.22121 16.2695 4.28646 15.3162L4.33196 14.6465L5.47321 14.1347C6.18921 13.814 6.64971 13.5692 6.70896 13.4785C6.96846 13.0825 6.94396 12.7997 6.57946 11.9952L6.40946 11.6197H8.04021V15.3747M17.5975 11.783C18.3082 11.968 18.6837 12.3442 18.6847 12.8717C18.6852 13.259 18.4935 13.5017 18.0172 13.7167C17.6802 13.8692 17.6267 13.873 15.5015 13.8937L13.33 13.9147V11.6847H15.2755C16.795 11.6847 17.3035 11.7062 17.5975 11.783ZM16.864 17.1715C17.2165 17.2695 17.633 17.5755 17.8465 17.8935C18.071 18.2277 18.2022 18.6625 18.5132 20.1025C18.7757 21.3197 18.945 21.7175 19.4182 22.2355C20.0045 22.877 19.8682 22.852 22.7967 22.852C24.1992 22.852 25.3462 22.8745 25.3462 22.902C25.3462 22.9512 24.3805 24.093 24.3387 24.093C24.3267 24.093 23.8222 23.9875 23.2177 23.8582C21.5105 23.4937 21.449 23.5365 21.0572 25.3662L20.8052 26.5417L20.5777 26.6537C20.1982 26.8412 18.9645 27.2267 18.3252 27.3585C17.2682 27.576 16.1182 27.6492 15.1075 27.564C13.3842 27.4177 11.1025 26.7492 11.0132 26.364C10.9945 26.2822 10.8795 25.7532 10.7587 25.188C10.6375 24.623 10.4902 24.087 10.4312 23.997C10.1487 23.566 9.85171 23.5395 8.54446 23.8285C8.04946 23.9382 7.61746 24.0275 7.58446 24.0275C7.52246 24.0275 6.60371 22.9652 6.60371 22.8937C6.60371 22.8712 8.78571 22.8452 11.4527 22.8362L16.3015 22.8197L16.319 21.0972C16.3315 19.881 16.3145 19.348 16.2617 19.2847C16.203 19.2137 15.8902 19.1952 14.7587 19.1952H13.33V17.1052L14.9792 17.1055C15.8857 17.106 16.7342 17.1355 16.864 17.1715ZM9.39246 25.0047C10.1635 25.4747 9.79371 26.7057 8.88171 26.7047C7.94671 26.7045 7.59996 25.4845 8.39671 24.9982C8.66046 24.8375 9.12371 24.8407 9.39246 25.0047ZM23.5125 25.0562C23.8905 25.3332 24.0162 25.9095 23.7822 26.2935C23.1672 27.3022 21.6292 26.5005 22.143 25.439C22.3955 24.9177 23.0667 24.7297 23.5125 25.0562Z" fill="#EA2D2E"/>
</g>
<defs>
<clipPath id="clip0_14_98">
<rect width="32" height="32" fill="white"/>
</clipPath>
</defs>
</svg>
